<svg width="21" height="21" viewBox="0 0 21 21" fill="none" xmlns="http://www.w3.org/2000/svg">
<g id="clipboard 1">
<g id="Group">
<g id="Group_2">
<g id="Group_3">
<path id="Vector" d="M16.6495 2.75139H14.7497V1.90147C14.7497 1.62649 14.4497 1.50151 14.1747 1.50151H12.6999C12.3499 0.501581 11.475 0.00161859 10.475 0.00161859C9.48612 -0.0355592 8.58663 0.570817 8.25021 1.50151H6.80032C6.52534 1.50151 6.25036 1.62649 6.25036 1.90147V2.75139H4.35046C3.2246 2.7634 2.30353 3.65155 2.25061 4.77622V19.1001C2.25061 20.2 3.25054 21 4.35046 21H16.6495C17.7494 21 18.7494 20.2 18.7494 19.1001V4.77626C18.6965 3.65155 17.7754 2.7634 16.6495 2.75139ZM7.25023 2.50143H8.62514C8.86515 2.47215 9.05793 2.28956 9.10013 2.05147C9.24817 1.40677 9.81378 0.943983 10.475 0.926566C11.1302 0.946423 11.6873 1.41064 11.8249 2.05147C11.8698 2.29779 12.0753 2.48272 12.3249 2.50143H13.7498V4.50128H7.25023V2.50143ZM17.7494 19.1002C17.7494 19.6501 17.1995 20.0001 16.6495 20.0001H4.35046C3.8005 20.0001 3.25054 19.6501 3.25054 19.1002V4.77626C3.30154 4.20381 3.77581 3.76184 4.35046 3.75136H6.25031V5.02627C6.27672 5.30637 6.51931 5.5159 6.80027 5.50125H14.1747C14.4608 5.5169 14.711 5.31025 14.7496 5.02627V3.75131H16.6495C17.2241 3.76184 17.6984 4.20376 17.7494 4.77622V19.1002H17.7494Z" fill="#000285"/>
<path id="Vector_2" d="M8.57512 11.1758C8.3876 10.9781 8.07631 10.967 7.87515 11.1508L6.27526 12.6756L5.60032 11.9757C5.41281 11.778 5.10151 11.7669 4.90036 11.9507C4.70672 12.1536 4.70672 12.4728 4.90036 12.6756L5.92526 13.7256C6.01397 13.8249 6.1421 13.8798 6.27522 13.8756C6.40709 13.8737 6.53288 13.8198 6.62518 13.7256L8.57502 11.8757C8.76833 11.6984 8.78125 11.3979 8.60388 11.2047C8.59478 11.1946 8.58517 11.185 8.57512 11.1758Z" fill="#000285"/>
<path id="Vector_3" d="M15.7496 12.2507H10.0001C9.72395 12.2507 9.50012 12.4745 9.50012 12.7506C9.50012 13.0268 9.72395 13.2506 10.0001 13.2506H15.7496C16.0258 13.2506 16.2496 13.0268 16.2496 12.7506C16.2496 12.4745 16.0258 12.2507 15.7496 12.2507Z" fill="#000285"/>
<path id="Vector_4" d="M8.57512 7.17607C8.3876 6.97841 8.07631 6.96726 7.87515 7.15109L6.27526 8.67596L5.60032 7.97599C5.41281 7.77833 5.10151 7.76718 4.90036 7.95101C4.70672 8.15389 4.70672 8.47308 4.90036 8.67596L5.92526 9.72588C6.01397 9.82522 6.1421 9.88014 6.27522 9.87589C6.40709 9.87402 6.53288 9.8201 6.62518 9.72588L8.57502 7.87604C8.76833 7.69871 8.78125 7.39823 8.60388 7.20497C8.59478 7.19487 8.58517 7.18526 8.57512 7.17607Z" fill="#000285"/>
<path id="Vector_5" d="M15.7496 8.25098H10.0001C9.72395 8.25098 9.50012 8.47481 9.50012 8.75094C9.50012 9.02707 9.72395 9.2509 10.0001 9.2509H15.7496C16.0258 9.2509 16.2496 9.02707 16.2496 8.75094C16.2496 8.47481 16.0258 8.25098 15.7496 8.25098Z" fill="#000285"/>
<path id="Vector_6" d="M8.57512 15.1754C8.3876 14.9778 8.07631 14.9667 7.87515 15.1504L6.27526 16.6753L5.60032 15.9753C5.41281 15.7777 5.10151 15.7666 4.90036 15.9504C4.70672 16.1532 4.70672 16.4724 4.90036 16.6753L5.92526 17.7252C6.01397 17.8246 6.1421 17.8795 6.27522 17.8752C6.40709 17.8734 6.53288 17.8194 6.62518 17.7252L8.57502 15.8754C8.76833 15.6981 8.78125 15.3976 8.60388 15.2043C8.59478 15.1943 8.58517 15.1846 8.57512 15.1754Z" fill="#000285"/>
<path id="Vector_7" d="M15.7496 16.2504H10.0001C9.72395 16.2504 9.50012 16.4742 9.50012 16.7503C9.50012 17.0265 9.72395 17.2503 10.0001 17.2503H15.7496C16.0258 17.2503 16.2496 17.0265 16.2496 16.7503C16.2496 16.4742 16.0258 16.2504 15.7496 16.2504Z" fill="#000285"/>
</g>
</g>
</g>
</g>
</svg>
