<svg width="18" height="18" viewBox="0 0 18 18" fill="none" xmlns="http://www.w3.org/2000/svg">
<g id="credit-card (2) 1" clip-path="url(#clip0_699_754)">
<g id="Group">
<path id="Vector" d="M6.75 16.3125H4.5C4.42541 16.3125 4.35387 16.3421 4.30113 16.3949C4.24838 16.4476 4.21875 16.5192 4.21875 16.5938C4.21875 16.6683 4.24838 16.7399 4.30113 16.7926C4.35387 16.8454 4.42541 16.875 4.5 16.875H6.75C6.82459 16.875 6.89613 16.8454 6.94887 16.7926C7.00162 16.7399 7.03125 16.6683 7.03125 16.5938C7.03125 16.5192 7.00162 16.4476 6.94887 16.3949C6.89613 16.3421 6.82459 16.3125 6.75 16.3125Z" fill="#000285"/>
<path id="Vector_2" d="M16.4531 5.625H10.6875V1.26562C10.6872 1.00464 10.5834 0.754429 10.3989 0.569885C10.2143 0.385342 9.96411 0.281538 9.70312 0.28125H1.54688C1.28589 0.281538 1.03568 0.385342 0.851135 0.569885C0.666592 0.754429 0.562788 1.00464 0.5625 1.26562V16.7344C0.562788 16.9954 0.666592 17.2456 0.851135 17.4301C1.03568 17.6147 1.28589 17.7185 1.54688 17.7188H9.70312C9.96411 17.7185 10.2143 17.6147 10.3989 17.4301C10.5834 17.2456 10.6872 16.9954 10.6875 16.7344V12.6562H16.4531C16.7141 12.656 16.9643 12.5522 17.1489 12.3676C17.3334 12.1831 17.4372 11.9329 17.4375 11.6719V6.60938C17.4372 6.34839 17.3334 6.09818 17.1489 5.91364C16.9643 5.72909 16.7141 5.62529 16.4531 5.625ZM6.95215 0.84375L6.81152 1.40625H4.43848L4.29785 0.84375H6.95215ZM10.125 16.7344C10.1249 16.8462 10.0804 16.9535 10.0013 17.0326C9.92224 17.1117 9.81498 17.1562 9.70312 17.1562H1.54688C1.43502 17.1562 1.32776 17.1117 1.24867 17.0326C1.16957 16.9535 1.12509 16.8462 1.125 16.7344V1.26562C1.12509 1.15377 1.16957 1.04651 1.24867 0.967417C1.32776 0.88832 1.43502 0.843843 1.54688 0.84375H3.71777L3.94594 1.7557C3.96115 1.81655 3.99626 1.87056 4.04569 1.90917C4.09512 1.94777 4.15603 1.96874 4.21875 1.96875H7.03125C7.09397 1.96874 7.15488 1.94777 7.20431 1.90917C7.25374 1.87056 7.28885 1.81655 7.30406 1.7557L7.53223 0.84375H9.70312C9.81498 0.843843 9.92224 0.88832 10.0013 0.967417C10.0804 1.04651 10.1249 1.15377 10.125 1.26562V16.7344ZM10.6875 9.84375H11.5312V10.9688H10.6875V9.84375ZM16.875 11.6719C16.8749 11.7837 16.8304 11.891 16.7513 11.9701C16.6722 12.0492 16.565 12.0937 16.4531 12.0938H10.6875V11.5312H11.8125C11.8871 11.5312 11.9586 11.5016 12.0114 11.4489C12.0641 11.3961 12.0938 11.3246 12.0938 11.25V9.5625C12.0938 9.48791 12.0641 9.41637 12.0114 9.36363C11.9586 9.31088 11.8871 9.28125 11.8125 9.28125H10.6875V8.4375H16.875V11.6719ZM16.875 7.875H10.6875V7.3125H16.875V7.875ZM16.875 6.75H10.6875V6.1875H16.4531C16.565 6.18759 16.6722 6.23207 16.7513 6.31117C16.8304 6.39026 16.8749 6.49752 16.875 6.60938V6.75Z" fill="#000285"/>
<path id="Vector_3" d="M16.0312 9.28125H13.5C13.4254 9.28125 13.3539 9.31088 13.3011 9.36363C13.2484 9.41637 13.2188 9.48791 13.2188 9.5625C13.2188 9.63709 13.2484 9.70863 13.3011 9.76137C13.3539 9.81412 13.4254 9.84375 13.5 9.84375H16.0312C16.1058 9.84375 16.1774 9.81412 16.2301 9.76137C16.2829 9.70863 16.3125 9.63709 16.3125 9.5625C16.3125 9.48791 16.2829 9.41637 16.2301 9.36363C16.1774 9.31088 16.1058 9.28125 16.0312 9.28125Z" fill="#000285"/>
<path id="Vector_4" d="M16.0312 10.125H13.5C13.4254 10.125 13.3539 10.1546 13.3011 10.2074C13.2484 10.2601 13.2188 10.3317 13.2188 10.4062C13.2188 10.4808 13.2484 10.5524 13.3011 10.6051C13.3539 10.6579 13.4254 10.6875 13.5 10.6875H16.0312C16.1058 10.6875 16.1774 10.6579 16.2301 10.6051C16.2829 10.5524 16.3125 10.4808 16.3125 10.4062C16.3125 10.3317 16.2829 10.2601 16.2301 10.2074C16.1774 10.1546 16.1058 10.125 16.0312 10.125Z" fill="#000285"/>
<path id="Vector_5" d="M16.0312 10.9688H14.9062C14.8317 10.9688 14.7601 10.9984 14.7074 11.0511C14.6546 11.1039 14.625 11.1754 14.625 11.25C14.625 11.3246 14.6546 11.3961 14.7074 11.4489C14.7601 11.5016 14.8317 11.5312 14.9062 11.5312H16.0312C16.1058 11.5312 16.1774 11.5016 16.2301 11.4489C16.2829 11.3961 16.3125 11.3246 16.3125 11.25C16.3125 11.1754 16.2829 11.1039 16.2301 11.0511C16.1774 10.9984 16.1058 10.9688 16.0312 10.9688Z" fill="#000285"/>
<path id="Vector_6" d="M5.625 5.625C4.95749 5.625 4.30497 5.82294 3.74995 6.19379C3.19494 6.56464 2.76235 7.09174 2.50691 7.70844C2.25146 8.32514 2.18463 9.00374 2.31485 9.65843C2.44508 10.3131 2.76651 10.9145 3.23852 11.3865C3.71052 11.8585 4.31188 12.1799 4.96657 12.3101C5.62125 12.4404 6.29985 12.3735 6.91655 12.1181C7.53325 11.8626 8.06036 11.4301 8.4312 10.875C8.80205 10.32 8.99999 9.66751 8.99999 9C8.99899 8.1052 8.64309 7.24734 8.01037 6.61462C7.37765 5.98191 6.51979 5.626 5.625 5.625ZM5.625 11.8125C5.06874 11.8125 4.52497 11.6475 4.06246 11.3385C3.59995 11.0295 3.23946 10.5902 3.02659 10.0763C2.81372 9.56238 2.75802 8.99688 2.86654 8.45131C2.97506 7.90573 3.24293 7.4046 3.63626 7.01126C4.0296 6.61793 4.53074 6.35006 5.07631 6.24154C5.62188 6.13302 6.18738 6.18872 6.70129 6.40159C7.21521 6.61446 7.65446 6.97494 7.9635 7.43746C8.27254 7.89997 8.4375 8.44374 8.4375 9C8.43665 9.74566 8.14006 10.4605 7.6128 10.9878C7.08554 11.5151 6.37066 11.8116 5.625 11.8125Z" fill="#000285"/>
<path id="Vector_7" d="M7.11362 7.95736L5.31735 9.75364L4.3875 9.05625C4.32783 9.01149 4.25282 8.99227 4.17898 9.00282C4.10513 9.01337 4.03851 9.05282 3.99375 9.1125C3.949 9.17217 3.92978 9.24718 3.94033 9.32102C3.95088 9.39486 3.99033 9.46149 4.05 9.50625L5.175 10.35C5.22916 10.3906 5.29616 10.4103 5.36369 10.4055C5.43122 10.4007 5.49476 10.3718 5.54263 10.3239L7.51138 8.35512C7.56413 8.30238 7.59376 8.23084 7.59376 8.15624C7.59376 8.08165 7.56413 8.01011 7.51138 7.95736C7.45863 7.90462 7.3871 7.87498 7.3125 7.87498C7.23791 7.87498 7.16637 7.90462 7.11362 7.95736Z" fill="#000285"/>
</g>
</g>
<defs>
<clipPath id="clip0_699_754">
<rect width="18" height="18" fill="white"/>
</clipPath>
</defs>
</svg>
