<svg width="130" height="33" viewBox="0 0 130 33" fill="none" xmlns="http://www.w3.org/2000/svg">
<path d="M57.7821 24.3788H57.1562V24.9658H57.7821V24.3788Z" fill="#000285"/>
<path d="M58.721 24.3788H58.0951V24.9658H58.721V24.3788Z" fill="#000285"/>
<path d="M59.6991 24.3788H59.0731V24.9658H59.6991V24.3788Z" fill="#000285"/>
<path d="M60.2468 24.9658H62.4376V24.5354H60.7553V23.1658H62.2811V22.7745H60.7553V21.444H62.4376V21.0135H60.2468V24.9658Z" fill="#000285"/>
<path d="M66.8583 21.8353C66.6236 21.8353 66.3889 21.9136 66.1933 22.031C65.9976 22.1483 65.8412 22.344 65.7629 22.6179C65.6847 22.344 65.5282 22.1483 65.3717 22.031C65.2152 21.9136 64.9414 21.8353 64.7066 21.8353C64.4719 21.8353 64.2372 21.9136 64.0416 22.031C63.846 22.1483 63.7286 22.344 63.6504 22.5788V21.9136H63.1418V24.9658H63.6504V23.3614C63.6504 23.0092 63.7286 22.7744 63.8851 22.5788C64.0416 22.3831 64.2763 22.3049 64.5502 22.3049C64.7849 22.3049 65.0196 22.3831 65.137 22.5397C65.2935 22.6962 65.3717 22.931 65.3717 23.244V24.9658H65.8803V23.3614C65.8803 23.0092 65.9585 22.7744 66.115 22.5788C66.2715 22.3831 66.5062 22.3049 66.741 22.3049C67.0148 22.3049 67.2104 22.3831 67.3278 22.5397C67.4843 22.6962 67.5625 22.931 67.5625 23.244V24.9658H68.0711V23.2049C68.0711 22.7744 67.9537 22.4614 67.7581 22.2266C67.4843 21.9527 67.2104 21.8353 66.8583 21.8353Z" fill="#000285"/>
<path d="M71.2399 22.031C71.0443 21.9136 70.7704 21.8353 70.4965 21.8353C70.1836 21.8353 69.9489 21.9136 69.7532 22.0701C69.5576 22.2266 69.4012 22.4223 69.3229 22.6571V21.8744H68.8143V26.3745H69.3229V24.144C69.4012 24.3788 69.5576 24.5745 69.7532 24.731C69.9489 24.8875 70.2227 24.9658 70.4965 24.9658C70.7704 24.9658 71.0051 24.8875 71.2399 24.7702C71.4355 24.6528 71.6311 24.4571 71.7484 24.2223C71.8658 23.9875 71.944 23.7136 71.944 23.4006C71.944 23.0875 71.8658 22.8136 71.7484 22.5788C71.6311 22.344 71.4746 22.1875 71.2399 22.031ZM71.1225 24.2614C70.9269 24.4571 70.6922 24.5745 70.3792 24.5745C70.1836 24.5745 69.988 24.5354 69.8315 24.418C69.675 24.3397 69.5576 24.1832 69.4403 24.0267C69.362 23.8701 69.3229 23.6745 69.3229 23.4397C69.3229 23.2049 69.362 23.0092 69.4403 22.8527C69.5185 22.6962 69.6359 22.5397 69.8315 22.4614C69.988 22.3831 70.1836 22.344 70.3792 22.344C70.6922 22.344 70.966 22.4614 71.1225 22.6571C71.3181 22.8527 71.3963 23.1266 71.3963 23.4788C71.3963 23.831 71.3181 24.0658 71.1225 24.2614Z" fill="#000285"/>
<path d="M74.7608 22.031C74.5261 21.9136 74.2522 21.8353 73.9784 21.8353C73.6654 21.8353 73.4307 21.9136 73.1959 22.031C72.9612 22.1483 72.7656 22.344 72.6482 22.5788C72.5309 22.8136 72.4526 23.0875 72.4526 23.4005C72.4526 23.7136 72.5309 23.9875 72.6482 24.2223C72.7656 24.4571 72.9612 24.6528 73.1959 24.7701C73.4307 24.8875 73.7045 24.9658 73.9784 24.9658C74.2913 24.9658 74.5261 24.8875 74.7608 24.7701C74.9955 24.6528 75.1911 24.4571 75.3085 24.2223C75.4258 23.9875 75.5041 23.7136 75.5041 23.4005C75.5041 23.0875 75.4258 22.8136 75.3085 22.5788C75.1911 22.344 74.9955 22.1875 74.7608 22.031ZM74.839 24.0658C74.7608 24.2223 74.6043 24.3788 74.4478 24.4571C74.2913 24.5354 74.1348 24.5745 73.9392 24.5745C73.7436 24.5745 73.5872 24.5354 73.4307 24.4571C73.2742 24.3788 73.1568 24.2614 73.0395 24.0658C72.9612 23.9093 72.883 23.6745 72.883 23.4397C72.883 23.2049 72.9221 22.9701 73.0395 22.8136C73.1568 22.6571 73.2742 22.5005 73.4307 22.4223C73.5872 22.344 73.7436 22.3049 73.9392 22.3049C74.1348 22.3049 74.2913 22.344 74.4478 22.4223C74.6043 22.5005 74.7217 22.6179 74.839 22.8136C74.9173 22.9701 74.9955 23.2049 74.9955 23.4397C74.9955 23.6745 74.9564 23.8701 74.839 24.0658Z" fill="#000285"/>
<path d="M79.2598 24.4571L78.3991 21.9136H77.8514L76.9907 24.4571L76.3648 21.9136H75.8562L76.7169 24.9658H77.2646L78.1252 22.4614L78.9468 24.9658H79.4945L80.3943 21.9136H79.8857L79.2598 24.4571Z" fill="#000285"/>
<path d="M82.9762 22.031C82.7415 21.9136 82.5068 21.8353 82.1938 21.8353C81.8808 21.8353 81.6461 21.9136 81.4114 22.031C81.1767 22.1483 81.0202 22.344 80.8637 22.5788C80.7072 22.8136 80.6681 23.0875 80.6681 23.4005C80.6681 23.7136 80.7463 23.9875 80.8637 24.2223C80.9811 24.4571 81.1767 24.6528 81.4114 24.7701C81.6461 24.8875 81.8808 24.9658 82.1938 24.9658C82.4677 24.9658 82.6633 24.9267 82.898 24.8093C83.0936 24.731 83.2501 24.5745 83.4066 24.418C83.5631 24.2614 83.6022 24.0658 83.6413 23.831H83.0936C83.0545 24.0267 82.9371 24.2223 82.7806 24.3397C82.6241 24.4571 82.4285 24.5354 82.1547 24.5354C81.8808 24.5354 81.6461 24.4571 81.4505 24.2614C81.2549 24.1049 81.1767 23.831 81.1375 23.4788H83.6022C83.6022 23.4006 83.6413 23.3223 83.6413 23.2049C83.6413 22.931 83.6022 22.6962 83.4848 22.5005C83.3674 22.344 83.211 22.1875 82.9762 22.031ZM81.2158 23.2832C81.2158 22.931 81.3331 22.6962 81.5288 22.5397C81.7244 22.3831 81.9591 22.2657 82.2329 22.2657C82.3894 22.2657 82.585 22.3049 82.7024 22.3831C82.8589 22.4614 82.9762 22.5788 83.0545 22.7353C83.1327 22.8918 83.1718 23.0875 83.1718 23.3223H81.2158V23.2832Z" fill="#000285"/>
<path d="M84.854 22.5005V21.9136H84.3455V24.9658H84.854V23.3614C84.854 23.0092 84.9323 22.7744 85.1279 22.6179C85.3235 22.4614 85.5582 22.3831 85.8321 22.3831H85.9885V21.8353C85.7147 21.8353 85.48 21.8744 85.2844 21.9918C85.0888 22.1483 84.9323 22.3049 84.854 22.5005Z" fill="#000285"/>
<path d="M87.0057 21.9136H86.4971V24.9658H87.0057V21.9136Z" fill="#000285"/>
<path d="M86.7319 20.7005C86.6146 20.7005 86.5363 20.7396 86.4972 20.7788C86.419 20.8179 86.4189 20.8962 86.4189 21.0136C86.4189 21.0918 86.4581 21.1701 86.4972 21.2483C86.5754 21.2875 86.6537 21.3266 86.7319 21.3266C86.8493 21.3266 86.9275 21.2875 86.9667 21.2483C87.0449 21.2092 87.0449 21.1309 87.0449 21.0136C87.0449 20.9353 87.0058 20.857 86.9667 20.7788C86.9275 20.7005 86.8493 20.7005 86.7319 20.7005Z" fill="#000285"/>
<path d="M89.4313 21.8353C89.1574 21.8353 88.9227 21.9136 88.7271 22.031C88.5315 22.1483 88.375 22.344 88.2967 22.6179V21.9136H87.7881V24.9658H88.2967V23.3614C88.2967 23.0092 88.375 22.7353 88.5315 22.5788C88.6879 22.3831 88.9227 22.3049 89.1965 22.3049C89.4704 22.3049 89.666 22.3831 89.8225 22.5397C89.979 22.6962 90.0572 22.931 90.0572 23.244V24.9658H90.5658V23.2049C90.5658 22.7744 90.4484 22.4614 90.2528 22.2266C90.0572 21.9527 89.7833 21.8353 89.4313 21.8353Z" fill="#000285"/>
<path d="M93.8519 22.6571C93.7737 22.4223 93.6172 22.2266 93.4216 22.0701C93.226 21.9136 92.9522 21.8353 92.6783 21.8353C92.4045 21.8353 92.1697 21.9136 91.935 22.031C91.7003 22.1483 91.5438 22.344 91.4264 22.5788C91.3091 22.8136 91.2308 23.0875 91.2308 23.4006C91.2308 23.7136 91.3091 23.9875 91.4264 24.2223C91.5438 24.4571 91.7003 24.6528 91.935 24.7701C92.1306 24.8875 92.4045 24.9658 92.6783 24.9658C92.9913 24.9658 93.226 24.8875 93.4216 24.731C93.6172 24.5745 93.7737 24.3788 93.8519 24.144V24.9658C93.8519 25.2789 93.7737 25.5136 93.5781 25.7093C93.3825 25.905 93.1869 25.9832 92.913 25.9832C92.6392 25.9832 92.4436 25.9441 92.2871 25.8267C92.1306 25.7093 92.0133 25.5528 91.935 25.3571H91.4264C91.5047 25.7093 91.6612 25.9832 91.935 26.1789C92.2089 26.3745 92.5218 26.4919 92.9522 26.4919C93.226 26.4919 93.4999 26.4137 93.6955 26.2963C93.9302 26.1789 94.0867 25.9832 94.204 25.7876C94.3214 25.5528 94.3996 25.318 94.3996 25.0441V21.9136H93.8911V22.6571H93.8519ZM93.6955 24.0267C93.6172 24.1832 93.4999 24.3397 93.3434 24.418C93.1869 24.4962 92.9913 24.5745 92.7957 24.5745C92.4827 24.5745 92.248 24.4571 92.0524 24.2614C91.8568 24.0658 91.7785 23.7919 91.7785 23.4397C91.7785 23.0875 91.8568 22.8136 92.0524 22.6179C92.248 22.4223 92.4827 22.3049 92.7957 22.3049C92.9913 22.3049 93.1869 22.344 93.3434 22.4223C93.4999 22.5005 93.6172 22.6571 93.6955 22.8136C93.7737 22.9701 93.8128 23.1658 93.8128 23.4006C93.8128 23.6353 93.8128 23.831 93.6955 24.0267Z" fill="#000285"/>
<path d="M97.7249 24.3006L96.7469 21.9136H96.1601L97.4511 24.9267L96.8252 26.4137H97.412L99.2115 21.9136H98.6638L97.7249 24.3006Z" fill="#000285"/>
<path d="M101.872 22.031C101.637 21.9136 101.363 21.8353 101.089 21.8353C100.776 21.8353 100.542 21.9136 100.307 22.031C100.072 22.1483 99.8766 22.344 99.7593 22.5788C99.6419 22.8136 99.5637 23.0875 99.5637 23.4005C99.5637 23.7136 99.6419 23.9875 99.7593 24.2223C99.8766 24.4571 100.072 24.6528 100.307 24.7701C100.542 24.8875 100.816 24.9658 101.089 24.9658C101.402 24.9658 101.637 24.8875 101.872 24.7701C102.107 24.6528 102.302 24.4571 102.42 24.2223C102.537 23.9875 102.615 23.7136 102.615 23.4005C102.615 23.0875 102.537 22.8136 102.42 22.5788C102.302 22.344 102.107 22.1875 101.872 22.031ZM101.95 24.0658C101.872 24.2223 101.715 24.3788 101.559 24.4571C101.402 24.5354 101.246 24.5745 101.05 24.5745C100.855 24.5745 100.698 24.5354 100.542 24.4571C100.385 24.3788 100.268 24.2614 100.15 24.0658C100.072 23.9093 99.994 23.6745 99.994 23.4397C99.994 23.2049 100.033 22.9701 100.15 22.8136C100.229 22.6571 100.385 22.5005 100.542 22.4223C100.698 22.344 100.855 22.3049 101.05 22.3049C101.246 22.3049 101.402 22.344 101.559 22.4223C101.715 22.5005 101.833 22.6179 101.95 22.8136C102.028 22.9701 102.107 23.2049 102.107 23.4397C102.107 23.6745 102.067 23.8701 101.95 24.0658Z" fill="#000285"/>
<path d="M105.51 23.518C105.51 23.8701 105.432 24.1441 105.275 24.3006C105.119 24.4962 104.884 24.5745 104.61 24.5745C104.336 24.5745 104.141 24.4962 103.984 24.3397C103.828 24.1832 103.75 23.9484 103.75 23.6354V21.9136H103.241V23.7136C103.241 24.1441 103.358 24.4571 103.554 24.6919C103.789 24.9267 104.063 25.0441 104.415 25.0441C104.689 25.0441 104.923 24.9658 105.119 24.8484C105.315 24.731 105.471 24.5354 105.549 24.2615V24.9658H106.058V21.9136H105.549V23.518H105.51Z" fill="#000285"/>
<path d="M110.635 22.6571C110.557 22.4223 110.4 22.2266 110.205 22.0701C110.009 21.9136 109.735 21.8353 109.461 21.8353C109.187 21.8353 108.953 21.9136 108.718 22.031C108.483 22.1484 108.327 22.344 108.209 22.5788C108.092 22.8136 108.014 23.0875 108.014 23.4006C108.014 23.7136 108.092 23.9875 108.209 24.2223C108.327 24.4571 108.483 24.6528 108.718 24.7702C108.914 24.8876 109.187 24.9658 109.461 24.9658C109.774 24.9658 110.009 24.8876 110.205 24.731C110.4 24.5745 110.557 24.3789 110.635 24.1441V24.9267H111.144V20.8179H110.635V22.6571ZM110.518 24.0267C110.439 24.1832 110.322 24.3397 110.165 24.418C110.009 24.4963 109.813 24.5745 109.618 24.5745C109.305 24.5745 109.07 24.4571 108.874 24.2615C108.679 24.0658 108.601 23.7919 108.601 23.4397C108.601 23.0875 108.679 22.8136 108.874 22.6179C109.07 22.4223 109.305 22.3049 109.618 22.3049C109.813 22.3049 110.009 22.344 110.165 22.4223C110.322 22.5005 110.439 22.6571 110.518 22.8136C110.596 22.9701 110.635 23.1658 110.635 23.4006C110.635 23.6354 110.596 23.831 110.518 24.0267Z" fill="#000285"/>
<path d="M112.474 21.9136H111.965V24.9658H112.474V21.9136Z" fill="#000285"/>
<path d="M112.2 20.7005C112.082 20.7005 112.004 20.7396 111.965 20.7788C111.887 20.8179 111.887 20.8962 111.887 21.0136C111.887 21.0918 111.926 21.1701 111.965 21.2483C112.043 21.2875 112.122 21.3266 112.2 21.3266C112.317 21.3266 112.395 21.2875 112.435 21.2483C112.513 21.2092 112.513 21.1309 112.513 21.0136C112.513 20.9353 112.474 20.857 112.435 20.7788C112.395 20.7005 112.317 20.7005 112.2 20.7005Z" fill="#000285"/>
<path d="M115.721 22.6571C115.642 22.4223 115.486 22.2266 115.29 22.0701C115.095 21.9136 114.821 21.8353 114.547 21.8353C114.273 21.8353 114.039 21.9136 113.804 22.031C113.569 22.1483 113.413 22.344 113.295 22.5788C113.178 22.8136 113.1 23.0875 113.1 23.4006C113.1 23.7136 113.178 23.9875 113.295 24.2223C113.413 24.4571 113.569 24.6528 113.804 24.7701C113.999 24.8875 114.273 24.9658 114.547 24.9658C114.86 24.9658 115.095 24.8875 115.29 24.731C115.486 24.5745 115.642 24.3788 115.721 24.144V24.9658C115.721 25.2789 115.642 25.5136 115.447 25.7093C115.251 25.905 115.056 25.9832 114.782 25.9832C114.508 25.9832 114.312 25.9441 114.156 25.8267C113.999 25.7093 113.882 25.5528 113.804 25.3571H113.295C113.373 25.7093 113.53 25.9832 113.804 26.1789C114.078 26.3745 114.391 26.4919 114.821 26.4919C115.095 26.4919 115.369 26.4137 115.564 26.2963C115.799 26.1789 115.955 25.9832 116.073 25.7876C116.19 25.5528 116.268 25.318 116.268 25.0441V21.9136H115.76V22.6571H115.721ZM115.603 24.0267C115.525 24.1832 115.408 24.3397 115.251 24.418C115.095 24.4962 114.899 24.5745 114.704 24.5745C114.391 24.5745 114.156 24.4571 113.96 24.2614C113.765 24.0658 113.686 23.7919 113.686 23.4397C113.686 23.0875 113.765 22.8136 113.96 22.6179C114.156 22.4223 114.391 22.3049 114.704 22.3049C114.899 22.3049 115.095 22.344 115.251 22.4223C115.408 22.5005 115.525 22.6571 115.603 22.8136C115.682 22.9701 115.721 23.1658 115.721 23.4006C115.721 23.6353 115.682 23.831 115.603 24.0267Z" fill="#000285"/>
<path d="M117.286 20.7005C117.168 20.7005 117.09 20.7396 117.051 20.7788C116.973 20.8179 116.973 20.8962 116.973 21.0136C116.973 21.0918 117.012 21.1701 117.051 21.2483C117.129 21.2875 117.207 21.3266 117.286 21.3266C117.403 21.3266 117.481 21.2875 117.52 21.2483C117.599 21.2092 117.599 21.1309 117.599 21.0136C117.599 20.9353 117.559 20.857 117.52 20.7788C117.481 20.7005 117.403 20.7005 117.286 20.7005Z" fill="#000285"/>
<path d="M117.559 21.9136H117.051V24.9658H117.559V21.9136Z" fill="#000285"/>
<path d="M119.124 24.418C119.046 24.3397 119.007 24.2223 119.007 24.0266V22.3831H119.789V21.9135H119.007V21.1309H118.498V21.9135H118.029V22.344H118.498V23.9875C118.498 24.3397 118.577 24.5745 118.733 24.731C118.89 24.8875 119.124 24.9658 119.437 24.9658H119.829V24.5353H119.516C119.32 24.4962 119.203 24.4571 119.124 24.418Z" fill="#000285"/>
<path d="M122.88 22.6571C122.802 22.4223 122.645 22.2266 122.45 22.0701C122.254 21.9136 121.98 21.8353 121.706 21.8353C121.432 21.8353 121.198 21.9136 120.963 22.031C120.728 22.1483 120.572 22.344 120.454 22.5788C120.337 22.8136 120.259 23.0875 120.259 23.4005C120.259 23.7136 120.337 23.9875 120.454 24.2223C120.572 24.4571 120.728 24.6528 120.963 24.7701C121.159 24.8875 121.432 24.9658 121.706 24.9658C122.019 24.9658 122.254 24.8875 122.45 24.731C122.645 24.5745 122.802 24.3788 122.88 24.144V24.9267H123.389V21.9136H122.88V22.6571ZM122.763 24.0267C122.684 24.1832 122.567 24.3397 122.41 24.418C122.254 24.4962 122.058 24.5745 121.863 24.5745C121.55 24.5745 121.315 24.4571 121.119 24.2614C120.924 24.0658 120.846 23.7919 120.846 23.4397C120.846 23.0875 120.924 22.8136 121.119 22.6179C121.315 22.4223 121.55 22.3049 121.863 22.3049C122.058 22.3049 122.254 22.344 122.41 22.4223C122.567 22.5005 122.684 22.6571 122.763 22.8136C122.841 22.9701 122.88 23.1658 122.88 23.4005C122.88 23.6353 122.841 23.831 122.763 24.0267Z" fill="#000285"/>
<path d="M124.719 20.8179H124.21V24.9658H124.719V20.8179Z" fill="#000285"/>
<path d="M126.049 20.8179H125.54V24.9658H126.049V20.8179Z" fill="#000285"/>
<path d="M128.044 24.3006L127.066 21.9136H126.479L127.77 24.9267L127.144 26.4137H127.731L129.531 21.9136H128.983L128.044 24.3006Z" fill="#000285"/>
<path d="M37.5955 13.7351C38.0258 13.6177 38.3779 13.4221 38.6126 13.109C38.8865 12.796 39.0039 12.3655 39.0039 11.896C39.0039 11.2307 38.7691 10.722 38.3388 10.3698C37.8693 10.0176 37.2434 9.82199 36.4218 9.82199H32.7053V17.9613H36.5001C37.3608 17.9613 38.0258 17.7657 38.4953 17.3743C38.9647 16.983 39.1995 16.4352 39.1995 15.7308C39.1995 15.2613 39.043 14.8308 38.7691 14.4786C38.4953 14.1264 38.1041 13.8525 37.5955 13.7351ZM34.7005 11.3872H35.9524C36.6566 11.3872 37.0087 11.6612 37.0087 12.2481C37.0087 12.8351 36.6566 13.109 35.9915 13.109H34.7005V11.3872ZM36.1089 16.3569H34.7005V14.5178H36.1089C36.461 14.5178 36.7348 14.596 36.9304 14.7525C37.126 14.9091 37.2043 15.1439 37.2043 15.4569C37.2043 16.0439 36.8131 16.3569 36.1089 16.3569Z" fill="#000285"/>
<path d="M42.2119 9.78284H40.2559V17.9613H44.833V16.4352H42.2119V9.78284Z" fill="#000285"/>
<path d="M50.5056 14.4786C50.5056 15.0264 50.3882 15.4178 50.1535 15.7308C49.9188 16.0047 49.5667 16.1612 49.0972 16.1612C48.6278 16.1612 48.2757 16.0047 48.0409 15.7308C47.8062 15.4569 47.6889 15.0264 47.6889 14.4786V9.78284H45.7328V14.4786C45.7328 15.2612 45.8893 15.8873 46.1631 16.4352C46.437 16.983 46.8282 17.3743 47.3368 17.6091C47.8453 17.8439 48.4322 18.0004 49.0581 18.0004C49.7232 18.0004 50.31 17.883 50.8185 17.6091C51.3271 17.3352 51.7575 16.9439 52.0313 16.4352C52.3443 15.9265 52.4616 15.2612 52.4616 14.4786V9.78284H50.5056V14.4786Z" fill="#000285"/>
<path d="M53.7917 17.9613H58.8384V16.3569H55.7478V14.5569H58.5254V13.0699H55.7478V11.3481H58.8384V9.78284H53.7917V17.9613Z" fill="#000285"/>
<path d="M64.4328 13.0699H59.347V14.7134H64.4328V13.0699Z" fill="#000285"/>
<path d="M73.548 13.8525C73.548 13.0699 73.3916 12.3655 73.0395 11.7394C72.6874 11.1133 72.2179 10.6437 71.5529 10.2915C70.9269 9.93936 70.1445 9.78284 69.2838 9.78284H66.1932V17.9222H69.2838C70.1445 17.9222 70.8878 17.7656 71.5529 17.4135C72.2179 17.0613 72.6874 16.5917 73.0395 15.9656C73.3916 15.3786 73.548 14.6351 73.548 13.8525ZM70.9269 15.5743C70.4966 15.9656 69.9098 16.2004 69.1273 16.2004H68.1884V11.5437H69.1273C69.9098 11.5437 70.4966 11.7394 70.9269 12.1699C71.3573 12.5612 71.5529 13.1481 71.5529 13.8916C71.5529 14.6351 71.3573 15.1438 70.9269 15.5743Z" fill="#000285"/>
<path d="M77.9296 14.0482C78.2426 14.2047 78.6729 14.4004 79.1815 14.5569C79.5336 14.6743 79.8074 14.7917 80.0031 14.8699C80.1987 14.9482 80.3551 15.0656 80.5116 15.2221C80.629 15.3786 80.7072 15.5352 80.7072 15.7308C80.7072 15.9656 80.629 16.1613 80.4725 16.2787C80.316 16.3961 80.1204 16.4743 79.8857 16.4743C79.6118 16.4743 79.338 16.3961 79.1815 16.2004C78.9859 16.0047 78.8685 15.77 78.8685 15.4569H76.756C76.7951 16.2395 77.1472 16.8656 77.734 17.3352C78.3208 17.7657 79.0641 18.0004 80.0031 18.0004C80.629 18.0004 81.1376 17.883 81.5679 17.6874C81.9982 17.4917 82.3112 17.1787 82.5459 16.8265C82.7807 16.4743 82.8589 16.083 82.8589 15.6526C82.8589 15.1047 82.7415 14.6743 82.5068 14.3612C82.2721 14.0482 81.9982 13.7743 81.6461 13.6177C81.3332 13.4612 80.9028 13.2655 80.3551 13.109C80.003 12.9916 79.7292 12.8742 79.5336 12.796C79.338 12.7177 79.1815 12.6003 79.0641 12.4829C78.9468 12.3655 78.8685 12.1699 78.8685 11.9742C78.8685 11.7394 78.9468 11.5438 79.0641 11.4264C79.2206 11.309 79.3771 11.2307 79.6118 11.2307C79.8857 11.2307 80.0813 11.309 80.2378 11.4655C80.3943 11.622 80.5116 11.8177 80.5507 12.0916H82.7024C82.6242 11.3481 82.3503 10.7611 81.8026 10.3307C81.2549 9.90025 80.5508 9.70459 79.651 9.70459C79.1033 9.70459 78.5947 9.78285 78.1644 9.97851C77.734 10.1742 77.3819 10.4481 77.1472 10.8003C76.9125 11.1525 76.7951 11.5829 76.7951 12.0525C76.7951 12.5612 76.9125 12.9916 77.1472 13.3438C77.3428 13.6177 77.6167 13.8525 77.9296 14.0482Z" fill="#000285"/>
<path d="M89.0009 16.3569H85.9103V14.5569H88.6488V13.0699H85.9103V11.3481H89.0009V9.78284H83.9542V17.9613H89.0009V16.3569Z" fill="#000285"/>
<path d="M92.0915 14.8699H92.5218L94.2823 17.9613H96.4731L94.5561 14.7525C95.1821 14.596 95.6515 14.3221 95.9645 13.8916C96.2775 13.4612 96.4731 12.9916 96.4731 12.3655C96.4731 11.8568 96.3557 11.4264 96.121 11.035C95.8862 10.6437 95.5733 10.3307 95.1038 10.135C94.6735 9.90023 94.1258 9.78284 93.4607 9.78284H90.0963V17.9222H92.0524V14.8699H92.0915ZM92.0915 11.4655H93.3042C93.6955 11.4655 93.9693 11.5437 94.1649 11.7394C94.3605 11.9351 94.4388 12.1699 94.4388 12.4829C94.4388 12.8351 94.3605 13.0699 94.1649 13.2655C93.9693 13.4221 93.6955 13.5394 93.3042 13.5394H92.0915V11.4655Z" fill="#000285"/>
<path d="M102.224 17.9613L105.08 9.78284H102.967L100.972 15.9265L98.9768 9.78284H96.8643L99.681 17.9613H102.224Z" fill="#000285"/>
<path d="M107.779 9.78284H105.823V17.9222H107.779V9.78284Z" fill="#000285"/>
<path d="M112.865 11.5438C113.295 11.5438 113.686 11.6612 113.999 11.8568C114.312 12.0916 114.547 12.3655 114.704 12.7568H116.777C116.581 11.8177 116.151 11.0742 115.447 10.5263C114.743 9.97851 113.921 9.70459 112.865 9.70459C112.083 9.70459 111.378 9.86112 110.792 10.2133C110.205 10.5655 109.735 11.0351 109.422 11.7003C109.109 12.3264 108.914 13.0308 108.914 13.8525C108.914 14.6743 109.07 15.3786 109.422 16.0047C109.735 16.6308 110.205 17.1396 110.792 17.4917C111.378 17.8439 112.083 18.0004 112.865 18.0004C113.921 18.0004 114.743 17.7265 115.447 17.1787C116.151 16.6308 116.581 15.8873 116.777 14.9873H114.704C114.547 15.3395 114.312 15.6526 113.999 15.8482C113.686 16.0439 113.295 16.1613 112.865 16.1613C112.278 16.1613 111.809 15.9656 111.457 15.5352C111.104 15.1047 110.909 14.5569 110.909 13.8525C110.909 13.1482 111.104 12.6003 111.457 12.1699C111.809 11.7394 112.278 11.5438 112.865 11.5438Z" fill="#000285"/>
<path d="M122.958 16.3569H119.868V14.5569H122.606V13.0699H119.868V11.3481H122.958V9.78284H117.872V17.9613H122.958V16.3569Z" fill="#000285"/>
<path d="M129.57 14.3612C129.335 14.0482 129.061 13.7743 128.709 13.6177C128.396 13.4612 127.966 13.2655 127.418 13.109C127.066 12.9916 126.792 12.8742 126.596 12.796C126.401 12.7177 126.244 12.6003 126.127 12.4829C126.01 12.3655 125.931 12.1699 125.931 11.9742C125.931 11.7394 126.01 11.5438 126.127 11.4264C126.283 11.309 126.44 11.2307 126.675 11.2307C126.948 11.2307 127.144 11.309 127.301 11.4655C127.457 11.622 127.574 11.8177 127.614 12.0916H129.765C129.687 11.3481 129.413 10.7611 128.865 10.3307C128.318 9.90025 127.614 9.70459 126.714 9.70459C126.166 9.70459 125.657 9.78285 125.227 9.97851C124.797 10.1742 124.445 10.4481 124.21 10.8003C123.975 11.1525 123.858 11.5829 123.858 12.0525C123.858 12.5612 123.975 12.9916 124.21 13.3438C124.445 13.6569 124.719 13.9308 125.071 14.0873C125.384 14.2438 125.814 14.4395 126.323 14.596C126.675 14.7134 126.948 14.8308 127.144 14.9091C127.34 14.9873 127.496 15.1047 127.653 15.2612C127.77 15.4178 127.848 15.5743 127.848 15.77C127.848 16.0047 127.77 16.2004 127.614 16.3178C127.457 16.4352 127.261 16.5135 127.027 16.5135C126.753 16.5135 126.479 16.4352 126.323 16.2395C126.127 16.0439 126.01 15.8091 126.01 15.496H123.897C123.936 16.2787 124.288 16.9048 124.875 17.3743C125.462 17.8048 126.205 18.0396 127.144 18.0396C127.77 18.0396 128.279 17.9222 128.709 17.7265C129.139 17.5309 129.452 17.2178 129.687 16.8656C129.922 16.5135 130 16.1221 130 15.6917C129.922 15.1047 129.804 14.6743 129.57 14.3612Z" fill="#000285"/>
<path d="M27.6588 12.2481C26.8764 11.5046 26.094 10.7611 25.3507 10.0568L17.2526 2.34788C16.6266 1.76091 16.0007 1.13481 15.3747 0.547839C15.1009 0.27392 14.7488 0.117394 14.3576 0.0391314C14.2793 0.0391314 14.2011 0 14.0837 0H14.0055C13.9664 0 13.8881 0.0391314 13.849 0.0391314C13.3795 0.0782628 12.9883 0.313051 12.6362 0.626102C11.6191 1.60439 10.6411 2.54354 9.62391 3.52182C8.95884 4.14793 8.3329 4.77403 7.66784 5.40013C7.62872 5.43926 7.5896 5.43926 7.5896 5.51752H7.74608C9.81951 5.51752 11.8929 5.51752 13.9664 5.51752C14.3185 5.51752 14.7097 5.51752 15.0618 5.55666C15.5703 5.59579 16.0789 5.63492 16.5875 5.71318C17.6046 5.86971 18.5827 6.14363 19.4825 6.65233C20.1084 7.00452 20.6561 7.43496 21.0864 8.02193C21.5559 8.64803 21.8297 9.39153 21.908 10.1742C21.908 10.2524 21.9471 10.2916 22.0254 10.3307C22.1036 10.3698 22.221 10.4089 22.2992 10.4481C23.199 10.8394 23.9423 11.4264 24.5682 12.209C25.1159 12.9134 25.4289 13.7351 25.5854 14.596C25.7028 15.1047 25.7419 15.6134 25.781 16.1221C25.8201 16.5526 25.781 16.983 25.7419 17.4135C25.7419 17.57 25.7027 17.7265 25.7027 17.883C25.8201 17.7265 25.6636 18.0004 26.3678 16.6308C26.6808 16.0439 27.072 15.5743 27.5415 15.1438C27.8935 14.8308 28.1283 14.4395 28.1674 14.009C28.1674 13.9699 28.1674 13.9699 28.2065 13.9308V13.4612C28.2065 13.3829 28.1674 13.3438 28.1674 13.2655C28.1283 12.796 27.9327 12.4829 27.6588 12.2481Z" fill="#000285"/>
<path d="M5.90731 7.12191C5.90731 7.08278 5.90731 7.12191 5.90731 7.12191C5.86819 7.16105 5.82907 7.16105 5.78995 7.20018L2.66025 10.1742C1.95606 10.8394 1.291 11.5046 0.586819 12.1699C0.195606 12.522 0 12.9525 0 13.4612C0 13.8916 0.117364 14.2438 0.391213 14.596C0.704183 15.0265 1.01715 15.4178 1.33012 15.8482C2.81673 17.8048 4.30334 19.7613 5.78995 21.7179C5.82907 21.757 5.82907 21.7962 5.86819 21.8353V21.7962C5.90731 16.9048 5.90731 12.0133 5.90731 7.12191Z" fill="#000285"/>
<path d="M17.8002 27.3919C16.7831 27.6659 15.7268 27.7833 14.6705 27.7833C13.2622 27.7833 11.8929 27.7833 10.4845 27.7833H10.3281C10.4845 27.9789 10.2498 27.7441 11.5017 28.9963C12.1276 29.6224 12.5971 30.4051 12.9883 31.2268C13.6143 32.5573 15.4138 32.6356 16.2354 31.5007C17.2917 29.9355 18.3479 28.4094 19.4433 26.8441C19.4433 26.805 19.4824 26.805 19.4824 26.7267C19.4433 26.7658 19.4042 26.7658 19.3651 26.7658C18.8565 27.0398 18.3479 27.2354 17.8002 27.3919Z" fill="#000285"/>
<path d="M11.0322 23.8702H11.1496C11.1496 23.8702 12.7927 23.9484 13.5751 23.9484C13.8098 23.9484 14.0837 23.9484 14.3184 23.9093C14.7096 23.8702 15.14 23.7919 15.5312 23.6745C15.5703 23.6745 15.5703 23.6354 15.6094 23.6354V23.4788H12.5971V20.3483C12.5971 20.3483 12.5971 19.4874 12.5971 19.1353C12.5971 18.7831 12.5971 18.3918 12.5971 18.0396H11.0322V23.8702Z" fill="#000285"/>
<path d="M21.1255 13.5003C21.0863 13.4612 21.0863 13.4221 21.0472 13.3829C21.0081 13.4221 21.0081 13.4221 20.969 13.4612C20.343 14.283 19.5606 14.8699 18.6217 15.3004C18.3087 15.4569 17.9566 15.5743 17.6045 15.6917C17.5654 15.6917 17.5263 15.6917 17.5263 15.7699C17.5654 15.7699 17.6045 15.7699 17.6437 15.8091C18.1522 15.8873 18.6608 16.0047 19.1303 16.1613C20.2257 16.5526 21.1646 17.1787 21.8297 18.1178C21.8297 18.1178 21.8688 18.157 21.8688 18.1961C21.9079 18.1178 21.9079 18.0787 21.9079 18.0396C22.1426 17.1787 22.1817 16.2787 21.9861 15.4178C21.9079 14.6743 21.634 14.009 21.1255 13.5003Z" fill="#000285"/>
<path d="M15.4529 9.39152C15.4138 9.35239 15.4138 9.39152 15.4529 9.39152C15.3746 9.35239 15.3355 9.35239 15.3355 9.31326C14.7487 9.1176 14.1619 9.03934 13.5359 9.03934C12.7535 9.03934 11.932 9.03934 11.1495 9.03934C11.1104 9.03934 11.1104 9.03934 11.0713 9.03934V9.07847C11.0713 10.8394 11.0713 12.6394 11.0713 14.4003V14.4395H12.6361V11.3872C12.6361 11.035 12.6361 10.722 12.6361 10.3698C12.6361 10.0176 12.6361 9.70457 12.6361 9.35239L15.4529 9.39152Z" fill="#000285"/>
<path d="M15.7267 21.1309H17.3698C17.3698 20.5831 17.2916 20.0744 16.9786 19.6048C16.6657 19.1352 16.2353 18.8222 15.7267 18.5874V21.1309Z" fill="#000285"/>
<path d="M15.805 12.1307C15.7659 12.3655 15.805 13.4612 15.805 13.5394C16.1963 13.1481 16.431 12.6785 16.5092 12.1307H15.805Z" fill="#000285"/>
</svg>
