<svg width="18" height="18" viewBox="0 0 18 18" fill="none" xmlns="http://www.w3.org/2000/svg">
<g id="user (8) 2" clip-path="url(#clip0_699_777)">
<g id="Group">
<g id="Group_2">
<g id="Group_3">
<path id="Vector" d="M18 4.67578V3.26953H16.7389C16.6724 3.01191 16.5697 2.76877 16.4373 2.54514L17.3301 1.65234L16.3358 0.657984L15.443 1.55078C15.2127 1.41451 14.9615 1.31006 14.6953 1.24372V0H13.2891V1.25578C13.0401 1.3224 12.8048 1.42246 12.5879 1.55078L11.6952 0.657984L10.7008 1.65234L11.5936 2.54514C11.4613 2.76877 11.3585 3.01191 11.292 3.26953H10.0195V4.67575H11.292C11.3585 4.93341 11.4613 5.17651 11.5936 5.40014L10.7008 6.29297L11.6952 7.28733L12.5879 6.39454C12.8048 6.52286 13.0401 6.62291 13.2891 6.68953V7.94531H14.6953V6.70159C14.9615 6.63525 15.2127 6.5308 15.443 6.39454L16.3358 7.28733L17.3301 6.29297L16.4374 5.40018C16.5697 5.17655 16.6724 4.93341 16.739 4.67578H18ZM14.0155 5.37891C13.2401 5.37891 12.6092 4.74806 12.6092 3.97266C12.6092 3.67073 12.7052 3.39096 12.8678 3.16157L13.2044 2.82495C13.4338 2.66235 13.7135 2.56641 14.0155 2.56641C14.7909 2.56641 15.4217 3.19725 15.4217 3.97266C15.4217 4.74806 14.7909 5.37891 14.0155 5.37891Z" fill="#000285"/>
<path id="Vector_2" d="M10.6037 10.6596C11.0747 10.3077 11.4762 9.86762 11.7827 9.36352L10.7452 8.32605C10.2418 9.40799 9.14481 10.1602 7.875 10.1602C6.13034 10.1602 4.71094 8.74076 4.71094 6.99609C4.71094 5.25143 6.13034 3.83203 7.875 3.83203C8.12753 3.83203 8.3732 3.86195 8.60878 3.91813L8.61135 2.48541C8.37155 2.44638 8.12566 2.42578 7.875 2.42578C5.35493 2.42578 3.30469 4.47602 3.30469 6.99609C3.30469 8.48355 4.0191 9.80712 5.12265 10.6422C4.07313 11.0291 3.11077 11.6419 2.29623 12.4564C0.815484 13.9372 0 15.9059 0 18H1.40625C1.40625 14.4525 4.29233 11.5664 7.83984 11.5664C11.3874 11.5664 14.2734 14.4525 14.2734 18H15.6797C15.6797 15.9059 14.8642 13.9372 13.3835 12.4564C12.581 11.6539 11.635 11.0474 10.6037 10.6596Z" fill="#000285"/>
</g>
</g>
</g>
</g>
<defs>
<clipPath id="clip0_699_777">
<rect width="18" height="18" fill="white"/>
</clipPath>
</defs>
</svg>
