<svg width="18" height="18" viewBox="0 0 18 18" fill="none" xmlns="http://www.w3.org/2000/svg">
<g id="wallet 1" clip-path="url(#clip0_699_763)">
<g id="Group">
<g id="Group_2">
<path id="Vector" d="M17.7159 2.98386L17.1759 0.261059C17.1436 0.0985338 16.9857 -0.00702868 16.8232 0.0252213C16.8232 0.0252213 16.8231 0.0252213 16.8231 0.0252588L1.9593 2.98056H1.5C1.33433 2.98056 1.2 3.11488 1.2 3.28056V4.81056C0.500741 4.95186 -0.00153398 5.56716 3.52012e-06 6.28056V16.4806C0.00097852 17.3086 0.672004 17.9796 1.5 17.9806H17.7C17.8657 17.9806 18 17.8462 18 17.6806V3.28056C17.9985 3.12216 17.8741 2.99222 17.7159 2.98386ZM16.6452 0.672359L17.1036 2.98056H5.0361L16.6452 0.672359ZM0.860104 5.64396L0.861604 5.64516C0.957379 5.55013 1.07292 5.47742 1.2 5.43216V7.12566C1.1934 7.12356 1.1868 7.12206 1.1802 7.11966C1.14147 7.10425 1.10389 7.0861 1.0677 7.06536C1.0497 7.05546 1.0305 7.04766 1.0131 7.03536C0.959179 7.00142 0.908929 6.96201 0.863104 6.91776C0.511466 6.56642 0.510116 5.99691 0.860104 5.64396ZM17.4 13.7806H13.2V11.3806H17.4V13.7806ZM17.4 10.7806H12.9C12.7343 10.7806 12.6 10.9149 12.6 11.0806V14.0806C12.6 14.2462 12.7343 14.3806 12.9 14.3806H17.4V17.3806H1.5C1.00294 17.3806 0.600004 16.9776 0.600004 16.4806V7.48056C0.613504 7.49076 0.628504 7.49766 0.642304 7.50726C0.668704 7.52586 0.696004 7.54176 0.723304 7.55856C0.773816 7.58942 0.826129 7.61725 0.879904 7.64196C0.909904 7.65546 0.939904 7.66866 0.969904 7.68006C1.02762 7.70162 1.08664 7.71943 1.1466 7.73346C1.1745 7.74036 1.2015 7.74906 1.2297 7.75416C1.3188 7.77111 1.40929 7.77996 1.5 7.78056H17.4V10.7806ZM7.5213 7.18056C7.68608 6.03253 8.75029 5.23543 9.89835 5.40021C10.8212 5.53266 11.5463 6.25772 11.6787 7.18056H7.5213ZM17.4 7.18056H12.2823C12.1118 5.69916 10.7727 4.63645 9.29134 4.80692C8.04465 4.9504 7.06114 5.93387 6.9177 7.18056H1.8V3.58056H17.4V7.18056Z" fill="#000285"/>
</g>
</g>
<g id="Group_3">
<g id="Group_4">
<path id="Vector_2" d="M16.5 4.18056H14.7V4.78056H16.2V6.28056H16.8V4.48056C16.8 4.31484 16.6657 4.18056 16.5 4.18056Z" fill="#000285"/>
</g>
</g>
<g id="Group_5">
<g id="Group_6">
<path id="Vector_3" d="M2.70002 4.18056C2.53435 4.18056 2.40002 4.31488 2.40002 4.48056V6.28056H3.00002V4.78056H4.50002V4.18056H2.70002Z" fill="#000285"/>
</g>
</g>
<g id="Group_7">
<g id="Group_8">
<path id="Vector_4" d="M14.4 12.2806H13.8V12.8806H14.4V12.2806Z" fill="#000285"/>
</g>
</g>
</g>
<defs>
<clipPath id="clip0_699_763">
<rect width="18" height="18" fill="white"/>
</clipPath>
</defs>
</svg>
